<?xml version="1.0" standalone="no"?>
<!DOCTYPE svg PUBLIC "-//W3C//DTD SVG 20010904//EN"
 "http://www.w3.org/TR/2001/REC-SVG-20010904/DTD/svg10.dtd">
<svg version="1.0" xmlns="http://www.w3.org/2000/svg"
 width="760.000000pt" height="760.000000pt" viewBox="0 0 760.000000 760.000000"
 preserveAspectRatio="xMidYMid meet">
<metadata>
Created by potrace 1.11, written by Peter Selinger 2001-2013
</metadata>
<g transform="translate(0.000000,760.000000) scale(0.100000,-0.100000)"
fill="#000000" stroke="none">
<path d="M140 3800 l0 -3800 2563 3 2562 2 100 23 c281 65 537 189 780 380
102 81 310 291 404 411 866 1094 1151 2960 695 4553 -218 763 -595 1398 -1064
1790 -244 204 -517 342 -815 410 l-100 23 -2562 2 -2563 3 0 -3800z m3060
2540 c0 -158 0 -162 -30 -219 -56 -112 -148 -337 -204 -500 -392 -1140 -392
-2502 0 -3642 56 -163 148 -388 204 -500 28 -54 30 -66 30 -169 l0 -110 -797
2 -798 3 -3 2635 c-1 1449 0 2641 3 2648 3 9 173 12 800 12 l795 0 0 -160z
m2500 -340 l0 -500 -900 0 -900 0 0 500 0 500 900 0 900 0 0 -500z m-900
-2100 l0 -400 -850 0 -850 0 0 400 0 400 850 0 850 0 0 -400z m900 -2200 l0
-500 -900 0 -900 0 0 500 0 500 900 0 900 0 0 -500z"/>
</g>
</svg>
